<?xml version="1.0" encoding="UTF-8"?>
<!DOCTYPE svg PUBLIC "-//W3C//DTD SVG 1.1//EN" "http://www.w3.org/Graphics/SVG/1.1/DTD/svg11.dtd">
<svg xmlns="http://www.w3.org/2000/svg" version="1.1" width="341px" height="311px" style="shape-rendering:geometricPrecision; text-rendering:geometricPrecision; image-rendering:optimizeQuality; fill-rule:evenodd; clip-rule:evenodd" xmlns:xlink="http://www.w3.org/1999/xlink">
<g><path style="opacity:0.998" fill="#1f1f1f" d="M 163.5,27.5 C 169.275,32.1004 174.941,36.9337 180.5,42C 182.124,43.1171 183.124,44.6171 183.5,46.5C 180.947,51.2289 177.78,55.5623 174,59.5C 171.318,62.3497 168.484,65.0164 165.5,67.5C 160.812,64.8222 156.479,61.6556 152.5,58C 149.238,55.246 146.571,52.0794 144.5,48.5C 150.486,41.1812 156.819,34.1812 163.5,27.5 Z"/></g>
<g><path style="opacity:0.999" fill="#1d1d1d" d="M 108.5,221.5 C 106.738,221.643 105.071,221.309 103.5,220.5C 102.291,222.415 100.958,224.248 99.5,226C 99.9054,226.945 100.572,227.612 101.5,228C 99.3527,230.692 99.6861,233.359 102.5,236C 101.748,236.671 101.414,237.504 101.5,238.5C 89.5737,200.378 98.2403,167.545 127.5,140C 137.176,132.154 147.509,125.321 158.5,119.5C 146.896,114.224 134.73,111.224 122,110.5C 110.475,110.76 100.142,114.427 91,121.5C 82.1897,105.597 86.023,93.7638 102.5,86C 117.128,81.7986 131.794,81.7986 146.5,86C 166.336,91.9589 186.336,97.2923 206.5,102C 218.183,103.36 229.849,103.86 241.5,103.5C 238.902,110.128 236.402,116.795 234,123.5C 233.215,125.286 232.049,126.786 230.5,128C 188.535,128.583 152.369,143.083 122,171.5C 108.83,185.858 104.33,202.525 108.5,221.5 Z"/></g>
<g><path style="opacity:0.998" fill="#1c1c1c" d="M 195.5,171.5 C 196.552,171.351 197.552,171.517 198.5,172C 203.682,177.015 208.682,182.181 213.5,187.5C 210.524,191.644 207.357,195.644 204,199.5C 201.961,201.874 199.628,203.874 197,205.5C 190.022,201.022 184.189,195.355 179.5,188.5C 185.531,183.469 190.865,177.803 195.5,171.5 Z"/></g>
<g><path style="opacity:1" fill="#1c1c1c" d="M 154.5,174.5 C 160.479,179.812 166.146,185.479 171.5,191.5C 166.509,197.823 161.176,203.823 155.5,209.5C 148.869,204.537 142.869,198.87 137.5,192.5C 143.133,186.532 148.799,180.532 154.5,174.5 Z"/></g>
<g><path style="opacity:0.999" fill="#1c1c1c" d="M 176.5,197.5 C 182.479,202.812 188.146,208.479 193.5,214.5C 188.796,220.205 183.463,225.205 177.5,229.5C 171.314,225.147 165.981,219.98 161.5,214C 167.006,208.992 172.006,203.492 176.5,197.5 Z"/></g>
<g><path style="opacity:0.999" fill="#1c1c1c" d="M 108.5,221.5 C 115.05,237.203 126.716,247.036 143.5,251C 163.957,254.569 184.624,254.902 205.5,252C 217.911,250.265 230.244,248.098 242.5,245.5C 243.647,245.818 244.481,246.484 245,247.5C 246.318,250.43 246.985,253.43 247,256.5C 219.48,273.341 189.646,280.508 157.5,278C 136.513,276.26 119.679,267.093 107,250.5C 104.35,246.867 102.517,242.867 101.5,238.5C 101.414,237.504 101.748,236.671 102.5,236C 99.6861,233.359 99.3527,230.692 101.5,228C 100.572,227.612 99.9054,226.945 99.5,226C 100.958,224.248 102.291,222.415 103.5,220.5C 105.071,221.309 106.738,221.643 108.5,221.5 Z"/></g>
</svg>
